<svg xmlns="http://www.w3.org/2000/svg" viewBox="0 0 26 26" enable-background="new 0 0 26 26" width="104" height="104">
    <path d="M 7 0 C 7 0 6.1125 2.50625 5.3125 2.90625 C 4.5125 3.20625 2.09375 2 2.09375 2 C 2.09375 2 3.20625 4.5125 2.90625 5.3125 C 2.70625 5.9125 -2.9605947e-16 7 0 7 C 0 7 2.6125 7.89375 2.8125 8.59375 C 2.9125 8.89375 2.7875 9.40625 2.6875 9.90625 L 4.8125 9.3125 C 4.2125 8.7125 3.8125 7.9 3.8125 7 C 3.8125 5.2 5.2 3.8125 7 3.8125 C 8.8 3.8125 10.1875 5.2 10.1875 7 C 10.1875 7.5 10.1125 8.00625 9.8125 8.40625 C 10.4125 8.30625 10.90625 8.2875 11.40625 8.1875 C 12.30625 7.6875 14 7 14 7 C 14 7 11.3875 6.00625 11.1875 5.40625 C 10.8875 4.40625 12 2.09375 12 2.09375 C 12 2.09375 9.6125 3.30625 8.8125 2.90625 C 8.1125 2.50625 7 1.4802974e-16 7 0 z M 17 9 C 17 9 7 8.9 0 12 L 0 19 C 8.2 10.7 17 9 17 9 z M 20.5 9.3125 C 20.5 9.3125 10.1 11.8 0 22 L 0 26 L 7 26 C 13.7 13 20.5 9.3125 20.5 9.3125 z M 24 9.6875 C 24 9.6875 15.1 14.7 10 26 L 18 26 C 19.8 17.8 24 9.6875 24 9.6875 z M 26 10 C 26 10 23.7 13.7 21 26 L 26 26 L 26 10 z"/>
</svg>